<mxfile host="app.diagrams.net" agent="Mozilla/5.0 (Windows NT 10.0; Win64; x64) AppleWebKit/537.36 (KHTML, like Gecko) Chrome/140.0.0.0 Safari/537.36" version="28.2.5">
  <diagram name="Page-1" id="E0GRGEoo9N0V_-WGA1Tq">
    <mxGraphModel dx="872" dy="511" grid="1" gridSize="10" guides="1" tooltips="1" connect="1" arrows="1" fold="1" page="1" pageScale="1" pageWidth="827" pageHeight="1169" math="0" shadow="0">
      <root>
        <mxCell id="0" />
        <mxCell id="1" parent="0" />
        <mxCell id="TMZ_WXgjhC2eWZ-Hsbn--9" style="edgeStyle=orthogonalEdgeStyle;rounded=0;orthogonalLoop=1;jettySize=auto;html=1;exitX=0.5;exitY=1;exitDx=0;exitDy=0;entryX=0.5;entryY=0;entryDx=0;entryDy=0;" edge="1" parent="1" source="TMZ_WXgjhC2eWZ-Hsbn--1" target="TMZ_WXgjhC2eWZ-Hsbn--6">
          <mxGeometry relative="1" as="geometry" />
        </mxCell>
        <mxCell id="TMZ_WXgjhC2eWZ-Hsbn--1" value="Build" style="ellipse;whiteSpace=wrap;html=1;aspect=fixed;" vertex="1" parent="1">
          <mxGeometry x="360" y="230" width="80" height="80" as="geometry" />
        </mxCell>
        <mxCell id="TMZ_WXgjhC2eWZ-Hsbn--7" style="edgeStyle=orthogonalEdgeStyle;rounded=0;orthogonalLoop=1;jettySize=auto;html=1;exitX=0.5;exitY=1;exitDx=0;exitDy=0;" edge="1" parent="1" source="TMZ_WXgjhC2eWZ-Hsbn--2" target="TMZ_WXgjhC2eWZ-Hsbn--4">
          <mxGeometry relative="1" as="geometry" />
        </mxCell>
        <mxCell id="TMZ_WXgjhC2eWZ-Hsbn--2" value="Plan" style="ellipse;whiteSpace=wrap;html=1;aspect=fixed;" vertex="1" parent="1">
          <mxGeometry x="360" y="10" width="80" height="80" as="geometry" />
        </mxCell>
        <mxCell id="TMZ_WXgjhC2eWZ-Hsbn--14" style="edgeStyle=orthogonalEdgeStyle;rounded=0;orthogonalLoop=1;jettySize=auto;html=1;exitX=0.5;exitY=1;exitDx=0;exitDy=0;entryX=0.5;entryY=0;entryDx=0;entryDy=0;" edge="1" parent="1" source="TMZ_WXgjhC2eWZ-Hsbn--3" target="TMZ_WXgjhC2eWZ-Hsbn--12">
          <mxGeometry relative="1" as="geometry" />
        </mxCell>
        <mxCell id="TMZ_WXgjhC2eWZ-Hsbn--3" value="Delay" style="ellipse;whiteSpace=wrap;html=1;aspect=fixed;" vertex="1" parent="1">
          <mxGeometry x="360" y="560" width="80" height="80" as="geometry" />
        </mxCell>
        <mxCell id="TMZ_WXgjhC2eWZ-Hsbn--8" style="edgeStyle=orthogonalEdgeStyle;rounded=0;orthogonalLoop=1;jettySize=auto;html=1;exitX=0.5;exitY=1;exitDx=0;exitDy=0;entryX=0.5;entryY=0;entryDx=0;entryDy=0;" edge="1" parent="1" source="TMZ_WXgjhC2eWZ-Hsbn--4" target="TMZ_WXgjhC2eWZ-Hsbn--1">
          <mxGeometry relative="1" as="geometry" />
        </mxCell>
        <mxCell id="TMZ_WXgjhC2eWZ-Hsbn--4" value="Develop" style="ellipse;whiteSpace=wrap;html=1;aspect=fixed;" vertex="1" parent="1">
          <mxGeometry x="360" y="130" width="80" height="80" as="geometry" />
        </mxCell>
        <mxCell id="TMZ_WXgjhC2eWZ-Hsbn--11" style="edgeStyle=orthogonalEdgeStyle;rounded=0;orthogonalLoop=1;jettySize=auto;html=1;exitX=0.5;exitY=1;exitDx=0;exitDy=0;entryX=0.5;entryY=0;entryDx=0;entryDy=0;" edge="1" parent="1" source="TMZ_WXgjhC2eWZ-Hsbn--5" target="TMZ_WXgjhC2eWZ-Hsbn--3">
          <mxGeometry relative="1" as="geometry" />
        </mxCell>
        <mxCell id="TMZ_WXgjhC2eWZ-Hsbn--5" value="Release" style="ellipse;whiteSpace=wrap;html=1;aspect=fixed;" vertex="1" parent="1">
          <mxGeometry x="360" y="450" width="80" height="80" as="geometry" />
        </mxCell>
        <mxCell id="TMZ_WXgjhC2eWZ-Hsbn--10" style="edgeStyle=orthogonalEdgeStyle;rounded=0;orthogonalLoop=1;jettySize=auto;html=1;exitX=0.5;exitY=1;exitDx=0;exitDy=0;entryX=0.5;entryY=0;entryDx=0;entryDy=0;" edge="1" parent="1" source="TMZ_WXgjhC2eWZ-Hsbn--6" target="TMZ_WXgjhC2eWZ-Hsbn--5">
          <mxGeometry relative="1" as="geometry" />
        </mxCell>
        <mxCell id="TMZ_WXgjhC2eWZ-Hsbn--6" value="Test" style="ellipse;whiteSpace=wrap;html=1;aspect=fixed;" vertex="1" parent="1">
          <mxGeometry x="360" y="350" width="80" height="80" as="geometry" />
        </mxCell>
        <mxCell id="TMZ_WXgjhC2eWZ-Hsbn--15" style="edgeStyle=orthogonalEdgeStyle;rounded=0;orthogonalLoop=1;jettySize=auto;html=1;exitX=0.5;exitY=1;exitDx=0;exitDy=0;entryX=0.5;entryY=0;entryDx=0;entryDy=0;" edge="1" parent="1" source="TMZ_WXgjhC2eWZ-Hsbn--12" target="TMZ_WXgjhC2eWZ-Hsbn--13">
          <mxGeometry relative="1" as="geometry" />
        </mxCell>
        <mxCell id="TMZ_WXgjhC2eWZ-Hsbn--12" value="Operate" style="ellipse;whiteSpace=wrap;html=1;aspect=fixed;" vertex="1" parent="1">
          <mxGeometry x="360" y="690" width="80" height="80" as="geometry" />
        </mxCell>
        <mxCell id="TMZ_WXgjhC2eWZ-Hsbn--13" value="Moniter" style="ellipse;whiteSpace=wrap;html=1;aspect=fixed;" vertex="1" parent="1">
          <mxGeometry x="360" y="820" width="80" height="80" as="geometry" />
        </mxCell>
      </root>
    </mxGraphModel>
  </diagram>
</mxfile>
